<?xml version="1.0" encoding="UTF-8"?>
<svg width="24" height="24" version="1.1" viewBox="-10 0 24 24" xmlns="http://www.w3.org/2000/svg">
 <path d="m9.0312 11.953q2.25 1.0781 3.6094 3.1641 1.3594 2.0859 1.3594 4.6641v1.5q0 0.51562-0.35156 0.86719-0.35156 0.35156-0.86719 0.35156h-15.562q-0.51562 0-0.86719-0.35156-0.35156-0.35156-0.35156-0.86719v-1.7812h-4.7812q-0.51562 0-0.86719-0.35156-0.35156-0.35156-0.35156-0.86719v-3.5625q0-1.4062 0.82031-2.4844t2.0391-1.5q-1.3594-1.3594-1.3594-3.2344t1.3125-3.1875 3.1875-1.3125q1.125 0 2.0625 0.49219 0.9375 0.49219 1.5469 1.3359 0.79688-1.5 2.25-2.4141 1.4531-0.91406 3.1406-0.91406 1.2188 0 2.3203 0.49219 1.1016 0.49219 1.9219 1.3125 0.82031 0.82031 1.2891 1.8984t0.46875 2.2969q0 1.2656-0.51562 2.4375t-1.4531 2.0156zm-4.0312-8.0625q-1.5 0-2.5547 1.0547-1.0547 1.0547-1.0547 2.5547t1.0547 2.5547q1.0547 1.0547 2.5547 1.0547t2.5547-1.0547q1.0547-1.0547 1.0547-2.5547t-1.0547-2.5547q-1.0547-1.0547-2.5547-1.0547zm-4.2656 7.875q-0.65625-0.65625-1.125-1.5938-0.23438 0.375-0.70312 0.75 0.98438 0.51562 1.5 1.3125l0.5625-0.28125zm-4.7344-6.375q-0.89062 0-1.5 0.60938t-0.60938 1.5 0.60938 1.5 1.5 0.60938 1.5-0.60938 0.60938-1.5-0.60938-1.5-1.5-0.60938zm0.65625 11.062q0.32812-0.84375 0.79688-1.5234 0.46875-0.67969 1.0781-1.2422-0.5625-0.79688-1.5-0.79688h-2.8125q-0.79688 0-1.3125 0.51562t-0.51562 1.3125v2.3906h4.0312zm14.953 3.3281q0-1.3125-0.49219-2.4609-0.49219-1.1484-1.3594-1.9922-0.86719-0.84375-2.0156-1.3359-1.1484-0.49219-2.4609-0.49219h-0.5625q-1.3125 0-2.4609 0.49219-1.1484 0.49219-2.0156 1.3359-0.86719 0.84375-1.3594 1.9922-0.49219 1.1484-0.49219 2.4609v0.32812h13.219z"/>
</svg>
