<?xml version="1.0" encoding="UTF-8"?>
<svg width="24" height="24" version="1.1" viewBox="-10 0 24 24" xmlns="http://www.w3.org/2000/svg">
 <path d="m2.8906 24q-1.7344 0-2.9531-1.2188l-8.7188-8.7188q-0.60937-0.5625-0.91406-1.3359-0.30469-0.77343-0.30469-1.6172v-8.3906q0-1.125 0.79688-1.9219 0.79687-0.79688 1.9219-0.79688h8.3906q1.7344 0 2.9531 1.2188l8.7188 8.7188q1.2188 1.2188 1.2188 2.9531 0 1.7344-1.2188 2.9531l-6.9375 6.9375q-1.2188 1.2188-2.9531 1.2188zm-10.172-21.609q-0.32812 0-0.32812 0.32812v8.3906q0 0.75 0.51562 1.2656l8.7188 8.7188q0.51563 0.51563 1.2656 0.51563t1.2656-0.51563l6.9375-6.9375q0.51563-0.51562 0.51563-1.2656t-0.51563-1.2656l-8.7188-8.6719q-0.46875-0.5625-1.2656-0.5625zm4.0312 6.6094q-0.9375 0-1.5938-0.65625t-0.65625-1.5938q0-0.89062 0.65625-1.5703t1.5938-0.67969 1.5938 0.65625 0.65625 1.5938-0.65625 1.5938-1.5938 0.65625z"/>
</svg>
