<?xml version="1.0" encoding="UTF-8"?>
<svg width="24" height="24" version="1.1" viewBox="-10 0 24 24" xmlns="http://www.w3.org/2000/svg">
 <path d="m11.281 3q1.125 0 1.9219 0.79688t0.79688 1.9219v12.562q0 1.125-0.79688 1.9219t-1.9219 0.79688h-18.562q-1.125 0-1.9219-0.79688t-0.79688-1.9219v-12.562q0-1.125 0.79688-1.9219t1.9219-0.79688zm-18.562 2.3906q-0.32812 0-0.32812 0.32812v1.7812h19.219v-1.7812q0-0.32812-0.32812-0.32812zm18.562 13.219q0.32812 0 0.32812-0.32812v-7.7812h-19.219v7.7812q0 0.32812 0.32812 0.32812zm-9-5.1094q0.51562 0 0.86719 0.35156 0.35156 0.35156 0.35156 0.86719t-0.35156 0.84375q-0.35156 0.32812-0.86719 0.32812h-6.5625q-0.51562 0-0.86719-0.32812t-0.35156-0.84375 0.35156-0.86719q0.35156-0.35156 0.86719-0.35156z"/>
</svg>
