<?xml version="1.0" encoding="UTF-8"?>
<svg width="24" height="24" version="1.1" viewBox="-10 0 24 24" xmlns="http://www.w3.org/2000/svg">
 <path d="m9.7344 10.312q1.9219 0.9375 3.0938 2.7891 1.1719 1.8516 1.1719 4.1016v1.0781q0 0.51562-0.35156 0.86719-0.35156 0.35156-0.86719 0.35156h-4.1719v0.28125q0 0.51562-0.35156 0.86719-0.35156 0.35156-0.86719 0.35156h-10.781q-0.51562 0-0.86719-0.35156-0.35156-0.35156-0.35156-0.86719v-0.28125h-4.1719q-0.51562 0-0.86719-0.35156-0.35156-0.35156-0.35156-0.86719v-1.0781q0-2.25 1.1719-4.1016 1.1719-1.8516 3.0938-2.7891-1.0312-1.2656-1.0312-2.8594 0-1.875 1.2656-3.1641 1.2656-1.2891 3.1875-1.2891 1.2188 0 2.2031 0.58594 0.98438 0.58594 1.5938 1.6172h0.98438q0.5625-1.0312 1.5938-1.6172 1.0312-0.58594 2.25-0.58594 1.9219 0 3.1875 1.2891 1.2656 1.2891 1.2656 3.1641 0 1.5938-1.0312 2.8594zm-3.4219-4.9219q-0.98438 0-1.5469 0.70312 0.79688 0.65625 1.2422 1.5234 0.44531 0.86719 0.44531 1.8984 0.84375-0.04687 1.3828-0.63281 0.53906-0.58594 0.53906-1.4297 0-0.89062-0.58594-1.4766-0.58594-0.58594-1.4766-0.58594zm-2.25 4.2188q0-0.89062-0.58594-1.4766-0.58594-0.58594-1.4766-0.58594t-1.4766 0.58594q-0.58594 0.58594-0.58594 1.4766t0.58594 1.4766q0.58594 0.58594 1.4766 0.58594t1.4766-0.58594q0.58594-0.58594 0.58594-1.4766zm-6.375-4.2188q-0.89062 0-1.4766 0.58594-0.58594 0.58594-0.58594 1.4766 0 0.84375 0.53906 1.4297 0.53906 0.58594 1.3828 0.63281 0-1.0312 0.44531-1.8984 0.44531-0.86719 1.2422-1.5234-0.60938-0.70312-1.5469-0.70312zm-2.1094 11.719q0.28125-1.4062 1.0781-2.5781t2.0156-1.9219q-0.14062-0.1875-0.28125-0.35156-0.14062-0.16406-0.23438-0.35156h-0.46875q-1.0781 0-2.0391 0.42188t-1.6875 1.125-1.1484 1.6406-0.42188 2.0156zm10.641 1.5q0-1.9219-1.2188-3.2344t-3-1.3125-3 1.3125-1.2188 3.2344zm5.3906-1.5q0-1.0781-0.42188-2.0156t-1.1484-1.6406q-0.72656-0.70312-1.6875-1.125-0.96094-0.42188-2.0391-0.42188h-0.46875q-0.09375 0.1875-0.23438 0.35156-0.14062 0.16406-0.28125 0.35156 1.2188 0.75 2.0156 1.9219t1.0781 2.5781z"/>
</svg>
