<?xml version="1.0" encoding="UTF-8"?>
<svg width="24" height="24" version="1.1" viewBox="-10 0 24 24" xmlns="http://www.w3.org/2000/svg">
 <path d="m11.281 12.516q0.51562 0 0.86719 0.32812 0.35156 0.32812 0.35156 0.84375v9.0938q0 0.51562-0.35156 0.86719-0.35156 0.35156-0.86719 0.35156h-18.562q-0.51562 0-0.86719-0.35156-0.35156-0.35156-0.35156-0.86719v-13.641q0-0.51562 0.35156-0.84375t0.86719-0.32812h4.7812v-2.2031q0-0.60938 0.5625-1.0312l2.7188-1.9219v-1.5938q0-0.51562 0.35156-0.86719t0.86719-0.35156 0.86719 0.35156q0.35156 0.35156 0.35156 0.86719v1.5938l2.7188 1.9219q0.5625 0.42188 0.5625 1.0312v6.75zm-4.7812 2.3906v2.1562h3.6094v-2.1562zm-2.3906 6.6562v-2.1094h-4.2188v2.1094zm0-4.5v-2.1562h-4.2188v2.1562zm-10.219 0h3.6094v-2.1562h-3.6094zm10.219-6.7031h-4.2188v2.1562h4.2188zm-4.2188-2.3906h4.2188v-1.5469l-2.1094-1.5-2.1094 1.4531zm-6 2.3906v2.1562h3.6094v-2.1562zm0 11.25h3.6094v-2.1562h-3.6094zm16.219 0v-2.1562h-3.6094v2.1562z"/>
</svg>
