<?xml version="1.0" encoding="UTF-8"?>
<svg width="24" height="24" version="1.1" viewBox="-10 0 24 24" xmlns="http://www.w3.org/2000/svg">
 <path d="m13.672 18.797q0.32812 0.32812 0.32812 0.84375t-0.32812 0.84375l-3.1875 3.1875q-0.32812 0.32812-0.84375 0.32812-0.42188 0-0.84375-0.32812l-9-9.0469q-1.125 0.375-2.2969 0.375-1.5469 0-2.9062-0.58594-1.3594-0.58594-2.3906-1.5938-1.0312-1.0078-1.6172-2.3438-0.58594-1.3359-0.58594-2.8359 0-0.42188 0.070312-1.0547t0.23438-1.2656 0.51562-1.0781 0.91406-0.44531q0.51562 0 0.84375 0.32812l2.9062 2.9531 1.5938-1.5938-2.9531-2.9062q-0.32812-0.32812-0.32812-0.84375 0-0.5625 0.44531-0.91406t1.0781-0.51562 1.2656-0.23438 1.0547-0.070312q1.5 0 2.8359 0.58594 1.3359 0.58594 2.3438 1.6172 1.0078 1.0312 1.5938 2.3906 0.58594 1.3594 0.58594 2.9062 0 1.1719-0.375 2.2969zm-21.281-11.297q0 1.0312 0.39844 1.9688t1.1016 1.6406 1.6406 1.1016q0.9375 0.39844 1.9688 0.39844 1.0781 0 1.9922-0.39844 0.91406-0.39844 1.6172-1.1016t1.1016-1.6406q0.39844-0.9375 0.39844-1.9688 0-1.0781-0.39844-1.9922-0.39844-0.91406-1.1016-1.6172t-1.6172-1.1016-1.9922-0.39844h-0.14062l2.25 2.25q0.32812 0.32812 0.32812 0.84375 0 0.5625-0.32812 0.89062l-3.2344 3.2344q-0.32812 0.32812-0.89062 0.32812-0.51562 0-0.84375-0.32812l-2.25-2.25zm18.703 12.141-7.5938-7.5938q-0.65625 0.79688-1.4531 1.4531l7.5938 7.5938z"/>
</svg>
