<?xml version="1.0" encoding="UTF-8"?>
<svg width="24" height="24" version="1.1" viewBox="-10 0 24 24" xmlns="http://www.w3.org/2000/svg">
 <path d="m9.5 16.5q0 0.51562-0.375 0.89062l-6.2344 6.2812q-0.42188 0.32812-0.84375 0.32812h-10.828q-0.51562 0-0.86719-0.35156-0.35156-0.35156-0.35156-0.86719v-21.562q0-0.51562 0.35156-0.86719t0.86719-0.35156h17.062q0.51562 0 0.86719 0.35156 0.35156 0.35156 0.35156 0.86719zm-7.9688 5.1094 0.46875-0.46875v-2.5781q0-0.84375 0.60938-1.4531t1.4531-0.60938h2.625l0.46875-0.46875v-13.641h-14.766v19.219zm-5.8125-14.109q-0.51562 0-0.86719-0.35156t-0.35156-0.86719v-0.5625q0-0.51562 0.35156-0.86719t0.86719-0.35156h0.5625q0.51562 0 0.86719 0.35156t0.35156 0.86719v0.5625q0 0.51562-0.35156 0.86719t-0.86719 0.35156zm4.5 0q-0.51562 0-0.86719-0.35156t-0.35156-0.86719v-0.5625q0-0.51562 0.35156-0.86719t0.86719-0.35156h3.5625q0.51562 0 0.86719 0.35156 0.35156 0.35156 0.35156 0.86719v0.5625q0 0.51562-0.35156 0.86719-0.35156 0.35156-0.86719 0.35156zm-4.5 3.75q-0.51562 0-0.86719-0.35156-0.35156-0.35156-0.35156-0.86719t0.35156-0.84375 0.86719-0.32812h8.0625q0.51562 0 0.86719 0.32812 0.35156 0.32812 0.35156 0.84375t-0.35156 0.86719q-0.35156 0.35156-0.86719 0.35156zm0 3.9375q-0.51562 0-0.86719-0.35156-0.35156-0.35156-0.35156-0.86719t0.35156-0.84375 0.86719-0.32812h8.0625q0.51562 0 0.86719 0.32812 0.35156 0.32812 0.35156 0.84375t-0.35156 0.86719q-0.35156 0.35156-0.86719 0.35156zm2.0625 1.9219q0.51562 0 0.86719 0.32812t0.35156 0.84375-0.35156 0.86719q-0.35156 0.35156-0.86719 0.35156h-2.0625q-0.51562 0-0.86719-0.35156-0.35156-0.35156-0.35156-0.86719t0.35156-0.84375 0.86719-0.32812zm15-17.109q0.51562 0 0.86719 0.35156 0.35156 0.35156 0.35156 0.86719v21.562q0 0.51562-0.35156 0.86719-0.35156 0.35156-0.86719 0.35156h-3.6094q-0.51562 0-0.86719-0.35156-0.35156-0.35156-0.35156-0.86719t0.35156-0.84375q0.35156-0.32812 0.86719-0.32812h2.4375v-20.391q0-0.51562 0.32812-0.86719t0.84375-0.35156z"/>
</svg>
