<?xml version="1.0" encoding="UTF-8"?>
<svg width="24" height="24" version="1.1" viewBox="-10 0 24 24" xmlns="http://www.w3.org/2000/svg">
 <path d="m-5.8281 2.3906q-0.51562 0-0.84375-0.32812t-0.32812-0.84375 0.32812-0.86719 0.84375-0.35156h15.609q0.51562 0 0.86719 0.35156 0.35156 0.35156 0.35156 0.86719t-0.35156 0.84375q-0.35156 0.32812-0.86719 0.32812zm19.734 10.922q0.09375 0.28125 0.09375 0.375 0 0.5625-0.375 0.84375l-0.79688 0.84375q-0.375 0.375-0.84375 0.63281t-0.98438 0.39844v6.375q0 0.51562-0.35156 0.86719-0.35156 0.35156-0.86719 0.35156t-0.84375-0.35156q-0.32812-0.35156-0.32812-0.86719v-6.6094q-0.70312-0.28125-1.2188-0.79688-0.98438 0.98438-2.3906 1.125v6.2812q0 0.51562-0.35156 0.86719-0.35156 0.35156-0.86719 0.35156h-9.6094q-0.51562 0-0.84375-0.35156-0.32812-0.35156-0.32812-0.86719v-6.375q-1.0781-0.28125-1.8281-1.0312l-0.84375-0.84375q-0.32812-0.28125-0.32812-0.84375 0-0.23438 0.046875-0.375l2.7188-8.0156q0.23438-0.79688 1.125-0.79688h16.219q0.79688 0 1.125 0.79688zm-11.297 8.2969v-5.7656q-0.23438-0.09375-0.60938-0.46875-1.125 1.125-2.7188 1.125t-2.6719-1.125q-0.46875 0.46875-1.2188 0.79688v5.4375zm8.8125-8.25-2.2031-6.4688h-14.484l-2.1562 6.4688 0.28125 0.28125q0.42188 0.46875 1.0312 0.46875t1.0312-0.46875l0.84375-0.79688q0.32812-0.32812 0.84375-0.32812t0.84375 0.32812l0.79688 0.79688q0.42188 0.46875 1.0312 0.46875t1.0781-0.46875l0.79688-0.79688q0.32812-0.32812 0.84375-0.32812t0.84375 0.32812l0.79688 0.79688q0.46875 0.46875 1.0312 0.46875 0.60938 0 1.0781-0.46875l0.79688-0.79688q0.32812-0.32812 0.84375-0.32812t0.84375 0.32812l0.79688 0.79688q0.46875 0.46875 1.0781 0.46875 0.5625 0 1.0312-0.46875z"/>
</svg>
