<?xml version="1.0" encoding="UTF-8"?>
<svg width="24" height="24" version="1.1" viewBox="-10 0 24 24" xmlns="http://www.w3.org/2000/svg">
 <path d="m10.893 0q1.2857 0 2.1964 0.91071 0.91072 0.91071 0.91072 2.1964v17.786q0 1.2857-0.91072 2.1964-0.91071 0.91071-2.1964 0.91071h-17.786q-1.2857 0-2.1964-0.91071-0.91071-0.91071-0.91071-2.1964v-17.786q0-1.2857 0.91071-2.1964 0.91071-0.91071 2.1964-0.91071zm0 21.268q0.375 0 0.375-0.375v-2.0357h-7.875q-2.0357 0-3.4286-1.3929-1.3929-1.3929-1.3929-3.4286v-4.0714q0-2.0357 1.3929-3.4286 1.3929-1.3929 3.4286-1.3929h7.875v-2.0357q0-0.375-0.375-0.375h-17.786q-0.375 0-0.375 0.375v17.786q0 0.375 0.375 0.375zm0.375-13.393h-7.875q-0.91072 0-1.5 0.58929-0.58928 0.58928-0.58928 1.5v4.0714q0 0.91072 0.58928 1.5 0.58929 0.58929 1.5 0.58929h7.875zm-5.8393 5.8393q-0.69643 0-1.2054-0.50893-0.50893-0.50893-0.50893-1.2054t0.50893-1.2054q0.50893-0.50893 1.2054-0.50893 0.69643 0 1.2054 0.50893 0.50893 0.50893 0.50893 1.2054t-0.50893 1.2054q-0.50893 0.50893-1.2054 0.50893z"/>
</svg>
