<?xml version="1.0" encoding="UTF-8"?>
<svg width="24" height="24" version="1.1" viewBox="-10 0 24 24" xmlns="http://www.w3.org/2000/svg">
 <path d="m6.7812 24h-9.5625q-1.7812 0-3-1.2188t-1.2188-3v-15.562q0-1.7812 1.2188-3t3-1.2188h9.5625q1.7812 0 3 1.2188t1.2188 3v15.562q0 1.7812-1.2188 3t-3 1.2188zm-9.5625-21.609q-0.79688 0-1.3125 0.51562t-0.51562 1.3125v15.562q0 0.79688 0.51562 1.3125t1.3125 0.51562h9.5625q0.79688 0 1.3125-0.51562t0.51562-1.3125v-15.562q0-0.79688-0.51562-1.3125t-1.3125-0.51562zm8.0625 13.5h-6.5625q-0.51562 0-0.86719-0.32812t-0.35156-0.84375 0.35156-0.86719q0.35156-0.35156 0.86719-0.35156h6.5625q0.51562 0 0.86719 0.35156 0.35156 0.35156 0.35156 0.86719t-0.35156 0.84375q-0.35156 0.32812-0.86719 0.32812zm0 3.8906h-6.5625q-0.51562 0-0.86719-0.35156-0.35156-0.35156-0.35156-0.86719t0.35156-0.84375 0.86719-0.32812h6.5625q0.51562 0 0.86719 0.32812 0.35156 0.32812 0.35156 0.84375t-0.35156 0.86719q-0.35156 0.35156-0.86719 0.35156zm0-8.3906h-6.5625q-0.51562 0-0.86719-0.32812t-0.35156-0.84375 0.35156-0.86719 0.86719-0.35156h6.5625q0.51562 0 0.86719 0.35156 0.35156 0.35156 0.35156 0.86719t-0.35156 0.84375q-0.35156 0.32812-0.86719 0.32812zm0.60938-7.5q0.60938 0 0.98438 0.375t0.375 0.98438-0.375 0.98438-0.98438 0.375-0.98438-0.375-0.375-0.98438 0.375-0.98438 0.98438-0.375z"/>
</svg>
