<?xml version="1.0" encoding="UTF-8"?>
<svg width="24" height="24" version="1.1" viewBox="-10 0 24 24" xmlns="http://www.w3.org/2000/svg">
 <path d="m9.7812 22.5h-15.562q-1.7812 0-3-1.2188t-1.2188-3v-12.562q0-1.7812 1.2188-3t3-1.2188h5.3906q0.42188 0 0.84375 0.32812l2.0625 2.0625h7.2656q1.7812 0 3 1.2188t1.2188 3v10.172q0 1.7812-1.2188 3t-3 1.2188zm-15.562-18.609q-0.79688 0-1.3125 0.51562t-0.51562 1.3125v12.562q0 0.79688 0.51562 1.3125t1.3125 0.51562h15.562q0.79688 0 1.3125-0.51562t0.51562-1.3125v-10.172q0-0.79688-0.51562-1.3125t-1.3125-0.51562h-7.7812q-0.42188 0-0.84375-0.32812l-2.0625-2.0625zm14.062 8.1094h-6.5625q-0.51562 0-0.86719-0.35156-0.35156-0.35156-0.35156-0.86719t0.35156-0.84375q0.35156-0.32812 0.86719-0.32812h6.5625q0.51562 0 0.86719 0.32812 0.35156 0.32812 0.35156 0.84375t-0.35156 0.86719q-0.35156 0.35156-0.86719 0.35156zm0 4.5h-6.5625q-0.51562 0-0.86719-0.35156-0.35156-0.35156-0.35156-0.86719t0.35156-0.84375q0.35156-0.32812 0.86719-0.32812h6.5625q0.51562 0 0.86719 0.32812 0.35156 0.32812 0.35156 0.84375t-0.35156 0.86719q-0.35156 0.35156-0.86719 0.35156zm-12.281 0q-0.65625 0-1.0781-0.42188t-0.42188-1.0781 0.42188-1.0781 1.0781-0.42188 1.0781 0.42188 0.42188 1.0781-0.42188 1.0781-1.0781 0.42188zm0-4.5q-0.65625 0-1.0781-0.42188t-0.42188-1.0781 0.42188-1.0781 1.0781-0.42188 1.0781 0.42188 0.42188 1.0781-0.42188 1.0781-1.0781 0.42188z"/>
</svg>
