<?xml version="1.0" encoding="UTF-8"?>
<svg width="24" height="24" version="1.1" viewBox="-10 0 24 24" xmlns="http://www.w3.org/2000/svg">
 <path d="m11 4.875q0.75 0.28125 0.75 1.125v14.391q0 0.51562-0.35156 0.86718-0.35156 0.35157-0.86719 0.35157-0.51562 0-0.84375-0.35157-0.32812-0.35156-0.32812-0.86718v-13.594l-10.969-4.2656-1.9688 0.9375 9.4688 3.7969q0.375 0.14062 0.5625 0.44531t0.1875 0.67969v14.391q0 0.51563-0.35157 0.86719-0.35156 0.35156-0.82031 0.35156-0.1875 0-0.46875-0.0937l-12-4.7812q-0.375-0.14062-0.5625-0.44531-0.1875-0.30474-0.1875-0.67974v-14.391q0-0.70313 0.46875-0.9375l5.1094-2.5312q0.23437-0.14063 0.51562-0.14063 0.14063 0 0.42188 0.0937zm-6.75 4.3594-9.6094-3.8438v11.812l9.6094 3.8438z"/>
</svg>
