<?xml version="1.0" encoding="UTF-8"?>
<svg width="24" height="24" version="1.1" viewBox="-10 0 24 24" xmlns="http://www.w3.org/2000/svg">
 <path d="m1.9531 21q0.28125-0.14062 0.60938-0.14062 0.51562 0 0.86719 0.32812 0.35156 0.32812 0.35156 0.84375 0 0.75-0.60938 1.0312l-1.2656 0.79688q-0.32812 0.14062-0.60938 0.14062-0.32812 0-0.60938-0.14062l-9.3281-5.3906q-0.60938-0.375-0.60938-1.0781v-9.75q0-0.375 0.09375-0.65625t0.42188-0.51562l4.8281-3.2344q0.32812-0.23438 0.65625-0.23438 0.375 0 0.60938 0.1875l7.8281 4.875q0.5625 0.28125 0.5625 1.0312v1.7344q0 0.5625-0.39844 0.86719-0.39844 0.30469-0.86719 0.30469-0.42188 0-0.79688-0.30469-0.375-0.30469-0.375-0.91406v-1.0312l-6.5156-4.125-3.6562 2.4844v8.625l8.1562 4.6875zm-1.3125-18.75q-0.60938-0.375-0.60938-1.0312 0-0.51562 0.35156-0.86719t0.86719-0.35156q0.32812 0 0.60938 0.14062l9.2812 5.4375q0.60938 0.375 0.60938 1.0312v4.1719q0 0.51562-0.35156 0.86719-0.35156 0.35156-0.86719 0.35156t-0.84375-0.35156q-0.32812-0.35156-0.32812-0.86719v-3.4688zm-0.46875 12.609q0.60938 0.375 0.60938 1.0312 0 0.51562-0.35156 0.86719-0.35156 0.35156-0.86719 0.35156-0.375 0-0.60938-0.1875l-3.0938-1.7812q-0.60938-0.375-0.60938-1.0312 0-0.51562 0.35156-0.86719 0.35156-0.35156 0.86719-0.35156 0.32812 0 0.5625 0.1875zm11.859 2.6719q0.51562 0 0.86719 0.35156 0.35156 0.35156 0.35156 0.86719t-0.35156 0.86719q-0.35156 0.35156-0.86719 0.35156h-2.8125v2.8125q0 0.51562-0.35156 0.86719-0.35156 0.35156-0.86719 0.35156t-0.86719-0.35156q-0.35156-0.35156-0.35156-0.86719v-2.8125h-2.8125q-0.51562 0-0.86719-0.35156-0.35156-0.35156-0.35156-0.86719t0.35156-0.86719q0.35156-0.35156 0.86719-0.35156h2.8125v-2.8125q0-0.51562 0.35156-0.86719 0.35156-0.35156 0.86719-0.35156t0.86719 0.35156q0.35156 0.35156 0.35156 0.86719v2.8125z"/>
</svg>
